<?xml version="1.0" encoding="UTF-8"?>
<svg id="Layer_1" data-name="Layer 1" xmlns="http://www.w3.org/2000/svg" viewBox="0 0 12.52 11.94">
  <defs>
    <style>
      .cls-1 {
        fill: none;
        stroke: #dde4fb;
        stroke-miterlimit: 10;
      }

      .cls-1, .cls-2 {
        fill-rule: evenodd;
      }

      .cls-2 {
        fill: #8da5f3;
        stroke-width: 0px;
      }
    </style>
  </defs>
  <path class="cls-2" fill="#8da5f3" d="m6.6.9c.06.04.12.1.15.17l2.73,4.81.07-.04c.13-.07.29-.02.35.11l1.34,2.58c.07.13.02.29-.11.35l-.07.04.14.28c.13.24.03.53-.21.66s-.53.03-.66-.21h0l-.14-.28-.04.02c-.13.07-.29.02-.35-.11l-1.34-2.58c-.07-.13-.02-.29.11-.35l.04-.02-1.71-2.87c-.09-.17-.34-.11-.34.08v3.3h.05c.15,0,.27.12.27.27h0v2.91c0,.15-.12.27-.27.27h-.05v.32c-.02.27-.26.47-.53.45-.25-.02-.43-.21-.45-.45v-.32h-.08c-.15,0-.27-.12-.27-.27v-2.91c0-.15.12-.27.27-.27h.08v-3.55c0-.19-.25-.25-.34-.08l-1.57,3.15.04.02c.13.07.18.23.11.35l-1.34,2.58c-.07.13-.23.18-.35.11l-.04-.02-.14.28c-.13.24-.42.34-.66.21s-.34-.42-.21-.66h0l.14-.28-.07-.04c-.13-.07-.18-.23-.11-.35l1.34-2.58c.07-.13.23-.18.35-.11l.07.04L5.25,1.07c.04-.07.09-.13.15-.17"/>
  <polyline class="cls-1" fill=none stroke="#dde4fb" stroke-miterlimit=10 stroke-width=1px points=".7 .35 2.11 1.77 .71 3.18 2.11 4.59 .72 5.98 2.13 7.4 .71 8.81 2.14 10.24 .78 11.59"/>
  <polyline class="cls-1" fill=none stroke="#dde4fb" stroke-miterlimit=10 stroke-width=1px points="11.82 .35 10.4 1.77 11.81 3.18 10.4 4.59 11.8 5.98 10.39 7.4 11.8 8.81 10.38 10.24 11.73 11.59"/>
</svg>