<?xml version="1.0" encoding="UTF-8"?>
<svg id="Layer_1" data-name="Layer 1" xmlns="http://www.w3.org/2000/svg" viewBox="0 0 12.85 13.52">
  <defs>
    <style>
      .cls-1, .cls-2 {
        fill: #8da5f3;
        stroke-width: 0px;
      }

      .cls-2 {
        fill-rule: evenodd;
      }
    </style>
  </defs>
  <path class="cls-2" fill="#8da5f3" d="m7.08,3.21c.06.04.12.1.15.17l2.77,4.88.07-.04c.13-.07.29-.02.36.11l1.36,2.62c.07.13.02.29-.11.36l-.07.04.14.28c.13.24.03.54-.21.67-.24.13-.54.03-.67-.21h0l-.14-.28-.04.02c-.13.07-.29.02-.36-.11l-1.36-2.62c-.07-.13-.02-.29.11-.36l.04-.02-1.74-2.91c-.09-.17-.34-.11-.34.08v3.35h.05c.15,0,.27.12.27.27h0v2.95c0,.15-.12.27-.27.27h-.05v.32c-.02.27-.26.48-.54.46-.25-.02-.44-.21-.46-.46v-.32h-.08c-.15,0-.27-.12-.27-.27v-2.95c0-.15.12-.27.27-.27h.08v-3.6c0-.19-.25-.25-.34-.08l-1.59,3.2.04.02c.13.07.18.23.11.36l-1.36,2.62c-.07.13-.23.18-.36.11l-.04-.02-.14.28c-.13.24-.43.34-.67.21-.24-.13-.34-.43-.21-.67h0l.14-.28-.07-.04c-.13-.07-.18-.23-.11-.36l1.36-2.62c.07-.13.23-.18.36-.11l.07.04,2.48-4.91c.04-.07.09-.13.15-.17"/>
  <circle class="cls-1" fill="#8da5f3" cx="6.46" cy="3.41" r=".72"/>
  <circle class="cls-1" fill="#8da5f3" cx="2.49" cy="2.49" r="2.49"/>
  <circle class="cls-1" fill="#8da5f3" cx="10.36" cy="2.49" r="2.49"/>
</svg>