<?xml version="1.0" encoding="UTF-8"?>
<svg id="Layer_1" data-name="Layer 1" xmlns="http://www.w3.org/2000/svg" viewBox="0 0 10.83 13.5">
  <defs>
    <style>
      .cls-1 {
        fill: #8da5f3;
        fill-rule: evenodd;
        stroke-width: 0px;
      }
    </style>
  </defs>
  <path class="cls-1" d="m5.9,2.82c.07.05.12.11.16.18l2.87,5.06.08-.04c.14-.07.31-.02.38.12l1.42,2.72c.07.14.02.31-.12.38l-.08.04.15.29c.13.25.03.56-.22.7-.25.13-.56.03-.7-.22h0l-.15-.29-.05.02c-.14.07-.3.02-.38-.12l-1.42-2.72c-.07-.14-.02-.3.12-.38l.05-.02-1.81-3.02c-.09-.17-.35-.11-.35.09v3.47h.05c.15,0,.28.13.28.28h0v3.06c0,.15-.13.28-.28.28h-.05v.33c-.02.28-.27.5-.55.48-.25-.02-.46-.22-.48-.48v-.33h-.09c-.15,0-.28-.12-.28-.28v-3.06c0-.15.13-.28.28-.28h.09v-3.74c0-.2-.26-.26-.35-.09l-1.65,3.32.05.02c.14.07.19.24.12.38l-1.42,2.72c-.07.14-.24.19-.38.12l-.05-.02-.15.29c-.13.25-.44.35-.7.22-.25-.13-.35-.44-.22-.7H.08l.15-.29-.08-.04c-.14-.07-.19-.24-.12-.38l1.42-2.72c.07-.14.24-.19.38-.12l.08.04,2.57-5.1c.04-.07.09-.13.16-.18"/>
  <path class="cls-1" d="m6.59,0h-2.65c-.2,0-.38.11-.48.28l-1.33,2.3c-.1.17-.1.38,0,.56l1.33,2.3c.1.17.28.28.48.28h2.65c.2,0,.38-.11.48-.28l1.33-2.3c.1-.17.1-.38,0-.56L7.07.28c-.1-.17-.28-.28-.48-.28Z"/>
</svg>