<?xml version="1.0" encoding="UTF-8"?>
<svg id="Layer_1" data-name="Layer 1" xmlns="http://www.w3.org/2000/svg" viewBox="0 0 13.47 13.64">
  <defs>
    <style>
      .cls-1 {
        fill: #8da5f3;
        fill-rule: evenodd;
        stroke-width: 0px;
      }
    </style>
  </defs>
  <path class="cls-1" fill="#8da5f3" d="m4.98,4.63c.06.04.1.09.13.15l2.42,4.27.06-.03c.12-.06.26-.02.32.1l1.19,2.29c.06.12.02.26-.1.32l-.06.03.12.25c.11.21.03.48-.19.59-.21.11-.48.03-.59-.19h0l-.12-.25-.04.02c-.12.06-.26.02-.32-.1l-1.19-2.29c-.06-.12-.02-.26.1-.32l.04-.02-1.52-2.55c-.08-.15-.3-.09-.3.07v2.92h.04c.13,0,.24.11.24.24h0v2.58c0,.13-.11.23-.24.23h-.04v.28c-.02.24-.23.42-.47.4-.21-.02-.39-.19-.4-.4v-.28h-.07c-.13,0-.24-.1-.24-.23v-2.58c0-.13.11-.24.24-.24h.07v-3.15c0-.17-.22-.22-.3-.07l-1.39,2.8.04.02c.11.06.16.2.1.32l-1.19,2.29c-.06.11-.2.16-.32.1l-.04-.02-.12.25c-.11.21-.37.3-.59.19-.21-.11-.3-.37-.19-.59H.07l.12-.25-.06-.03c-.12-.06-.16-.2-.1-.32l1.19-2.29c.06-.12.2-.16.32-.1l.06.03,2.17-4.3c.03-.06.08-.11.13-.15"/>
  <path class="cls-1" fill="#8da5f3" d="m8.52,8.96c-.06-.04-.1-.09-.13-.15l-2.41-4.24-.06.03c-.11.06-.26.02-.32-.1l-1.19-2.28c-.06-.11-.02-.26.1-.32l.06-.03-.12-.25c-.11-.21-.03-.47.18-.58.21-.11.47-.03.58.18h0l.12.25.04-.02c.11-.06.26-.02.32.1l1.19,2.28c.06.11.02.26-.1.32l-.04.02,1.51,2.53c.08.15.3.09.3-.07v-2.91h-.04c-.13,0-.23-.11-.23-.23h0V.91c0-.13.11-.23.23-.23h.04v-.28c.02-.24.23-.42.47-.4.21.02.38.19.4.4v.28h.07c.13,0,.23.1.23.23v2.57c0,.13-.11.23-.23.23h-.07v3.13c0,.16.22.22.3.07l1.38-2.78-.04-.02c-.11-.06-.16-.2-.1-.32l1.19-2.28c.06-.11.2-.16.32-.1l.04.02.12-.25c.11-.21.37-.29.58-.18.21.11.29.37.18.58h0l-.12.25.06.03c.11.06.16.2.1.32l-1.19,2.28c-.06.11-.2.16-.32.1l-.06-.03-2.16,4.27c-.03.06-.08.11-.13.15"/>
</svg>