<?xml version="1.0" encoding="UTF-8"?>
<svg id="Layer_1" data-name="Layer 1" xmlns="http://www.w3.org/2000/svg" viewBox="0 0 11.96 11.94">
  <defs>
    <style>
      .cls-1 {
        fill: #dde4fb;
      }

      .cls-1, .cls-2 {
        fill-rule: evenodd;
        stroke-width: 0px;
      }

      .cls-2 {
        fill: #8da5f3;
      }
    </style>
  </defs>
  <path class="cls-2" fill="#8da5f3" d="m6.44.9c.06.04.12.1.15.17l2.73,4.81.07-.04c.13-.07.29-.02.35.11l1.34,2.58c.07.13.02.29-.11.35l-.07.04.14.28c.13.24.03.53-.21.66s-.53.03-.66-.21h0l-.14-.28-.04.02c-.13.07-.29.02-.35-.11l-1.34-2.58c-.07-.13-.02-.29.11-.35l.04-.02-1.71-2.87c-.09-.17-.34-.11-.34.08v3.3h.05c.15,0,.27.12.27.27h0v2.91c0,.15-.12.27-.27.27h-.05v.32c-.02.27-.26.47-.53.45-.25-.02-.43-.21-.45-.45v-.32h-.08c-.15,0-.27-.12-.27-.27v-2.91c0-.15.12-.27.27-.27h.08v-3.55c0-.19-.25-.25-.34-.08l-1.57,3.15.04.02c.13.07.18.23.11.35l-1.34,2.58c-.07.13-.23.18-.35.11l-.04-.02-.14.28c-.13.24-.42.34-.66.21s-.34-.42-.21-.66h0l.14-.28-.07-.04c-.13-.07-.18-.23-.11-.35l1.34-2.58c.07-.13.23-.18.35-.11l.07.04L5.09,1.07c.04-.07.09-.13.15-.17"/>
  <path class="cls-1" fill="#dde4fb" d="m.25.71l.94.95c.07.08.07.2,0,.27L.06,3.05c-.08.07-.08.2,0,.27l1.14,1.16c.07.08.07.2,0,.27L.06,5.85c-.08.08-.08.2,0,.27l1.13,1.13c.07.07.08.19,0,.27L.1,8.69c-.07.07-.07.19,0,.26l1.1,1.18c.07.08.07.19,0,.27l-.87.87.68.68,1.61-1.57c.08-.07.08-.2,0-.27l-1.16-1.21c-.07-.08-.07-.2,0-.27l1.14-1.06c.08-.07.08-.2,0-.28l-1.14-1.15c-.08-.08-.07-.2,0-.27l1.14-1.12c.08-.07.08-.19,0-.27l-1.15-1.19c-.07-.08-.07-.2,0-.27l1.13-1.06c.08-.08.08-.2,0-.28L.92,0,.25.71Z"/>
  <path class="cls-1" fill="#dde4fb" d="m11.7.71l-.94.95c-.07.08-.07.2,0,.27l1.13,1.12c.08.07.08.2,0,.27l-1.14,1.16c-.07.08-.07.2,0,.27l1.13,1.11c.08.08.08.2,0,.27l-1.13,1.13c-.07.07-.08.19,0,.27l1.1,1.16c.07.07.07.19,0,.26l-1.1,1.18c-.07.08-.07.19,0,.27l.87.87-.68.68-1.61-1.57c-.08-.07-.08-.2,0-.27l1.16-1.21c.07-.08.07-.2,0-.27l-1.14-1.06c-.08-.07-.08-.2,0-.28l1.14-1.15c.08-.08.07-.2,0-.27l-1.14-1.12c-.08-.07-.08-.19,0-.27l1.15-1.19c.07-.08.07-.2,0-.27l-1.13-1.06c-.08-.08-.08-.2,0-.28L11.04,0l.67.71Z"/>
</svg>