<?xml version="1.0" encoding="UTF-8"?>
<svg id="Layer_1" data-name="Layer 1" xmlns="http://www.w3.org/2000/svg" viewBox="0 0 13.48 13.61">
  <defs>
    <style>
      .cls-1, .cls-2 {
        fill: #8da5f3;
        stroke-width: 0px;
      }

      .cls-2 {
        fill-rule: evenodd;
      }
    </style>
  </defs>
  <path class="cls-2" fill="#8da5f3" d="m5.44,3.63c.06.04.11.1.14.17l2.65,4.67.07-.04c.13-.07.28-.02.35.11l1.3,2.5c.07.13.02.28-.11.35l-.07.04.14.27c.12.23.03.52-.2.64-.23.12-.52.03-.64-.2h0l-.14-.27-.04.02c-.13.06-.28.02-.35-.11l-1.3-2.5c-.06-.13-.02-.28.11-.35l.04-.02-1.66-2.79c-.08-.16-.33-.1-.33.08v3.2h.05c.14,0,.26.12.26.26h0v2.82c0,.14-.12.26-.26.26h-.05v.31c-.02.26-.25.46-.51.44-.23-.02-.42-.2-.44-.44v-.31h-.08c-.14,0-.26-.11-.26-.26v-2.82c0-.14.12-.26.26-.26h.08v-3.44c0-.18-.24-.24-.33-.08l-1.52,3.06.04.02c.13.07.17.22.11.35l-1.3,2.5c-.07.13-.22.17-.35.11l-.04-.02-.14.27c-.12.23-.41.32-.64.2-.23-.12-.32-.41-.2-.64H.07l.14-.27-.07-.04c-.13-.07-.17-.22-.11-.35l1.3-2.5c.07-.13.22-.17.35-.11l.07.04,2.37-4.7c.03-.07.08-.12.14-.17"/>
  <rect class="cls-1" fill="#8da5f3" x="6.67" y="6.81" width="10.54" height="3.07" transform="translate(3.6 20.29) rotate(-90)"/>
  <rect class="cls-1" fill="#8da5f3" x=".09" y="0" width="10.31" height="3.07"/>
</svg>