<?xml version="1.0" encoding="UTF-8"?>
<svg id="Layer_1" data-name="Layer 1" xmlns="http://www.w3.org/2000/svg" viewBox="0 0 13.64 13.23">
  <defs>
    <style>
      .cls-1, .cls-2 {
        fill: #8da5f3;
        stroke-width: 0px;
      }

      .cls-2 {
        fill-rule: evenodd;
      }
    </style>
  </defs>
  <path class="cls-2" fill="#8da5f3" d="m7.35,2.92c.06.04.12.1.15.17l2.77,4.88.07-.04c.13-.07.29-.02.36.11l1.36,2.62c.07.13.02.29-.11.36l-.07.04.14.28c.13.24.03.54-.21.67-.24.13-.54.03-.67-.21h0l-.14-.28-.04.02c-.13.07-.29.02-.36-.11l-1.36-2.62c-.07-.13-.02-.29.11-.36l.04-.02-1.74-2.91c-.09-.17-.34-.11-.34.08v3.35h.05c.15,0,.27.12.27.27h0v2.95c0,.15-.12.27-.27.27h-.05v.32c-.02.27-.26.48-.54.46-.25-.02-.44-.21-.46-.46v-.32h-.08c-.15,0-.27-.12-.27-.27v-2.95c0-.15.12-.27.27-.27h.08v-3.6c0-.19-.25-.25-.34-.08l-1.59,3.2.04.02c.13.07.18.23.11.36l-1.36,2.62c-.07.13-.23.18-.36.11l-.04-.02-.14.28c-.13.24-.43.34-.67.21-.24-.13-.34-.43-.21-.67h0l.14-.28-.07-.04c-.13-.07-.18-.23-.11-.36l1.36-2.62c.07-.13.23-.18.36-.11l.07.04,2.48-4.91c.04-.07.09-.13.15-.17"/>
  <path class="cls-1" fill="#8da5f3" d="m13.57,2.45L11.19.07c-.09-.09-2.19-.09-2.28,0-.09.09-.09.24,0,.34l2.21,2.21-2.21,2.21c-.09.09-.09.24,0,.34.05.05,2.05.07,2.11.07s.12-.02.17-.07l2.38-2.38s.07-.11.07-.17c0-.06-.03-.12-.07-.17Z"/>
  <path class="cls-1" fill="#8da5f3" d="m.07,2.48L2.45.1c.09-.09,1.99-.09,2.08,0,.09.09.09.24,0,.34l-2.21,2.21,2.21,2.21c.09.09.09.24,0,.34-.05.05-1.85.07-1.91.07s-.12-.02-.17-.07L.07,2.82s-.07-.11-.07-.17c0-.06.03-.12.07-.17Z"/>
  <rect class="cls-1" fill="#8da5f3" x=".73" y="2.06" width="12.31" height="1.19"/>
</svg>