<?xml version="1.0" encoding="UTF-8"?>
<svg id="Layer_1" data-name="Layer 1" xmlns="http://www.w3.org/2000/svg" viewBox="0 0 12.37 12.39">
  <defs>
    <style>
      .cls-1 {
        fill: #8da5f3;
        fill-rule: evenodd;
      }

      .cls-1, .cls-2 {
        stroke-width: 0px;
      }

      .cls-2 {
        fill: #bbceff;
      }
    </style>
  </defs>
  <path class="cls-1" fill="#8da5f3" d="m6.82.58c.07.05.13.12.17.2l3.17,5.59.08-.04c.15-.08.34-.02.42.13l1.56,3c.08.15.02.34-.13.42l-.08.04.16.33c.15.28.04.62-.24.77-.28.15-.62.04-.77-.24h0l-.16-.33-.05.03c-.15.08-.34.02-.42-.13l-1.56-3c-.08-.15-.02-.34.13-.42l.05-.03-1.99-3.34c-.1-.19-.39-.12-.39.1v3.83h.06c.17,0,.31.14.31.31h0v3.38c0,.17-.14.31-.31.31h-.06v.37c-.02.31-.3.55-.61.53-.28-.02-.51-.25-.53-.53v-.37h-.09c-.17,0-.31-.14-.31-.31v-3.38c0-.17.14-.31.31-.31h.09V3.36c0-.22-.29-.29-.39-.1l-1.82,3.67-.15-.02c0,.17.03.07-.05.22l-.91,1.72c-.08.15.11.45-.04.37l-.05-.03-.11.22c-.15.28-.54.49-.82.35-.28-.15-.39-.49-.24-.77h0l.16-.33.19.1c-.15-.08-.06-.14.02-.29l.81-1.72c.08-.15.07-.15.22-.07l-.05-.28L5.24.78c.04-.08.1-.15.17-.2"/>
  <path class="cls-2" fill="#bbceff" d="m10.61,0c-.98,0-1.77.8-1.76,1.77,0,.57.28,1.11.75,1.44-.17.78-.49,1.18-.87,1.45-.57.4-1.51.54-2.62.65s-2.37.2-3.46.96c-.79.55-1.35,1.46-1.61,2.74-.89.41-1.28,1.45-.87,2.34.41.89,1.45,1.28,2.34.87.89-.41,1.28-1.45.87-2.34-.13-.29-.33-.53-.59-.71.17-.78.49-1.18.87-1.45.57-.4,1.51-.54,2.62-.65s2.37-.2,3.46-.96c.79-.55,1.35-1.46,1.61-2.74.89-.41,1.27-1.46.86-2.35-.29-.62-.91-1.02-1.6-1.03Z"/>
</svg>